<?xml version="1.0" encoding="UTF-8"?>
<svg xmlns="http://www.w3.org/2000/svg" version="1.1" viewBox="0 0 515.6 83.8">
  <defs>
    <style>
      .cls-1 {
        fill: #fff;
      }

      .cls-1, .cls-2 {
        fill-rule: evenodd;
      }

      .cls-2 {
        fill: #c29f69;
      }
    </style>
  </defs>
  <!-- Generator: Adobe Illustrator 28.6.0, SVG Export Plug-In . SVG Version: 1.2.0 Build 709)  -->
  <g>
    <g id="Ebene_1">
      <path class="cls-1" d="M215.1,27.2l9.8,26.8h-21l-2.9,7.7h26.5l6.2,17.5h8.8s-22.6-64.1-22.6-64.1l-4.8,12.1h0ZM180.4,79.1h9.4c0-.1,27.6-67.4,27.6-67.4h-9l-28.1,67.4ZM395,79.1h9.4c0-.1,27.6-67.4,27.6-67.4h-9l-28.1,67.4h0ZM429.6,27.2l9.8,26.8h-21l-3,7.7h26.3l6.4,17.5h8.8s-22.6-64.1-22.6-64.1l-4.8,12.1h0ZM316.5,79.1h7.8s0-67.5,0-67.5h-7.8v67.5s0,0,0,0ZM472.7,11.6v67.5s36.8,0,36.8,0l6.1-7.2h-35V11.6h-7.9,0ZM363.5,19.3v59.9h7.9s0-59.8,0-59.8h24.1s-6.4-7.7-6.4-7.7h-48.2v7.7h22.6s0,0,0,0ZM113.6,45.2c0,12,5.4,23.6,15.7,30.1,8,5,18.5,6.3,27.6,4,2.1-.5,7.1-2.3,8.1-3.2l-1.7-7.8c-1.5,1.1-7.5,5.1-15.6,4.7-6.8-.3-11.7-1.9-16.9-6.7-7.8-7.2-10.3-19.9-7.3-29.7,2.6-8.3,7.3-13.6,14.9-16.7,3.8-1.5,8.9-2.1,13.6-1.4,6.1.9,10.1,3.3,11.1,3.9l2.9-7.5c-1.1-.5-1.5-1-4.4-2.1-5.5-2.1-11.8-3-17.7-2.3-8.2,1.1-14.9,3.7-20.8,9.7-5.2,5.3-9.7,14.6-9.7,25h0ZM259.3,79.2h7.9v-24.8c7.2-.2,14.7.4,20.7-2.5,2.9-1.4,6.2-3.7,8-6.3,2.3-3.3,3.5-5.9,4.1-10.3.6-4.5-.8-9.9-3-13.6-2.3-3.8-6.1-6.7-10.2-8.4-2.1-.9-6.1-1.8-8.3-1.8h-19.2v67.6h0ZM267.3,46.6v-27.2s7.3,0,7.3,0c4.9.2,6.9.2,11.3,2.6,7.2,3.9,8.6,14.2,2.7,20.1-5.4,5.5-13.5,4.8-21.2,4.6h0Z"/>
      <path class="cls-2" d="M44.8,60.6l-19.6,23.3H0l32.1-38.1,12.8,14.9ZM70.6,0h25.3l-35.3,41.9,35.3,41.9h-25.3l-35.4-41.8L70.6,0ZM25.3,0H0l31.8,37.8,12.8-14.9L25.3,0Z"/>
    </g>
  </g>
</svg>